<?xml version="1.0" encoding="utf-8"?>
<!-- Generator: Adobe Illustrator 16.0.0, SVG Export Plug-In . SVG Version: 6.00 Build 0)  -->
<!DOCTYPE svg PUBLIC "-//W3C//DTD SVG 1.1//EN" "http://www.w3.org/Graphics/SVG/1.1/DTD/svg11.dtd">
<svg version="1.1" id="레이어_1" xmlns="http://www.w3.org/2000/svg" xmlns:xlink="http://www.w3.org/1999/xlink" x="0px"
	 y="0px" width="150px" height="165px" viewBox="0 0 150 165" enable-background="new 0 0 150 165" xml:space="preserve">
<g>
	<g>
		<path fill="#5D5D5D" d="M108.479,12.008l-0.044-0.162c0.11,0.023,0.348,0.045,0.329-0.098c-0.047,0.244,0.285-0.02,0.106,0.184
			l0.001-0.041c-0.066-0.02-0.065,0.059-0.089,0.123c0.062,0.264,0.302,0.123,0.473,0.205c-0.022-0.021-0.065,0.02-0.087,0.039
			c0.234,0.061,0.087-0.08,0.328-0.182c0.025-0.102-0.051,0.205,0.125,0.125c0.155-0.1-0.014-0.182,0.012-0.326h0.174l0.033-0.223
			c-0.027,0.1,0.104,0.063,0.216,0.014c-0.166,0.096-0.188,0.283-0.268,0.504c0.026,0.027,0.067,0.063,0.067,0.111
			c0.012-0.008,0.023-0.018,0.033-0.023c0.066-0.113,0.139-0.217,0.212-0.311c-0.011-0.01-0.017-0.018-0.031-0.027
			c0.042,0.01,0.084-0.072,0.156-0.127c0.232-0.285,0.443-0.539,0.458-0.949c0.112-0.064,0.052,0.076,0.104,0.148
			c-0.05-0.467,0.339-0.588,0.373-0.979l-0.078-0.016c0.329-0.505,0.228-1.175,0.362-1.781l-0.062,0.07
			c-0.069-0.086-0.084-0.224-0.117-0.328c0.04-0.012,0.172,0.078,0.14-0.1c-0.028,0.035-0.06,0.111-0.1,0.088
			c0.214-0.527,0.154-1.654,0.077-2.564c-0.135-0.597-0.244-1.236-0.476-1.88c-0.093-0.322-0.223-0.643-0.396-0.951l-0.247-0.46
			l-0.001-0.004l-0.001-0.002l0,0c0.798,0.049,0.524,0.035-0.06-0.004c-0.044-0.24-0.002-0.484-0.165-0.697
			c-0.17-0.217-0.297-0.408-0.45-0.648c-0.077-0.123-0.2-0.748-0.366-0.738c-0.113,0.008-0.131,0.326-0.152,0.404
			c-0.088,0.293-0.191,0.333-0.409,0.507c-0.225,0.178-0.466,0.59-0.612,0.842c-0.048,0.088-0.072,0.182-0.098,0.27l-0.055,0.059
			l-0.119,0.14c0.029-0.037,0.059-0.041,0.084-0.033c-0.045,0.062-0.091,0.123-0.147,0.173c-0.103,0.031-0.159,0.098-0.206,0.172
			c-0.112,0.088-0.222,0.18-0.304,0.301c-0.013,0.004-0.021,0.01-0.035,0.014c-0.359,0.451-0.891,0.609-1.156,1.113l-0.068-0.07
			c-0.09,0.016-0.064,0.08-0.125,0.139l-0.014-0.023c-0.176,0.09-0.305,0.314-0.422,0.346l0.06,0.092
			c-0.095,0.072-0.101-0.035-0.163,0.08l-0.03-0.045l-0.059,0.158c-0.095-0.162-0.286,0.17-0.411,0.15
			c-0.107,0.111-0.304,0.342-0.531,0.412c-0.086-0.064-0.333,0.072-0.511,0.115c-0.285,0.199-0.746,0.416-1.162,0.578l0.057,0.109
			l-0.103,0.057c-0.01-0.023-0.03-0.031-0.019-0.053c-0.137-0.092-0.239,0.139-0.359,0.096c0.098,0.08,0.082-0.012,0.147-0.037
			c0.114,0.021,0.071,0.162-0.074,0.152l-0.008-0.023l-0.062,0.092c-0.044-0.088-0.135-0.1-0.18-0.186
			c-0.352,0.162-0.542,0.412-0.95,0.486c0.007-0.113-0.269,0.117-0.248-0.084c-0.209,0.138,0.084,0.128,0.018,0.289
			c-0.066,0.02-0.119,0.088-0.15,0.025c0.017-0.049-0.087-0.088-0.039-0.123l-0.152,0.063c-0.018-0.008,0.01-0.043,0.022-0.061
			c-0.29,0.199-0.604,0.035-0.862,0.221c-0.006,0.07,0.118-0.014,0.113,0.059c-0.26,0.207-0.284-0.043-0.537,0.113l0.035-0.104
			c-0.074,0.082-0.096,0.168-0.26,0.127c-0.049-0.098,0.104-0.113,0.164-0.178c-0.1,0.018-0.35,0.102-0.25,0.18
			c-0.115,0.063-0.181-0.021-0.252-0.035c0.004,0.025,0.129,0.043,0.068,0.111c-0.177-0.027-0.429,0.035-0.636,0.066
			c-0.004-0.029-0.024-0.064-0.011-0.08c-0.136,0.17-0.167-0.074-0.386-0.002c-0.592,0.16-1.363,0.424-1.982,0.477
			c-0.11,0.162-0.307,0.195-0.498,0.254l-0.047-0.186l-0.155,0.084c-0.074-0.049,0.12-0.055-0.007-0.107l-0.044,0.127
			c-0.022-0.068-0.426,0.016-0.172-0.16l-0.641,0.084c-0.141,0.012-0.061,0.168-0.226,0.145c-0.036-0.051,0.053-0.047,0.03-0.113
			c-0.488-0.078-0.497,0.437-0.951,0.41l0.033-0.027c-0.068,0.057-0.212,0.066-0.211,0.096c0.082,0.186,0.066-0.111,0.215-0.02
			c0.01,0.164-0.156,0.111-0.131,0.23c-0.113-0.043-0.162,0.055-0.251,0.076c-0.167-0.08-0.38,0.02-0.513-0.09
			c-0.07,0.061-0.132,0.23-0.296,0.258c-0.133-0.107,0.013-0.121-0.154-0.148l-0.013,0.098c-0.132,0.004-0.115-0.025-0.115-0.07
			c-0.142,0.016-0.101,0.145-0.283,0.107l0.085-0.102c-0.125,0.049-0.182,0.043-0.363,0.063c-0.004-0.053,0.07-0.063,0.125-0.055
			c-0.118-0.119-0.158,0.086-0.215,0.078c0.02,0.037,0.148,0.035,0.101,0.139c-0.092-0.004-0.172,0.154-0.253,0.055l0.085-0.104
			c-0.179,0.098-0.083,0.131-0.303,0.125l0.004-0.051c-0.117,0.141-0.312,0.057-0.518,0.08l0.036-0.029
			c-0.077,0.045-0.108,0.137-0.153,0.137c0.125,0.033,0.098,0.066,0.121,0.152c-0.176-0.127-0.201,0.219-0.463,0.168
			c-0.006-0.051,0.045-0.127,0.123-0.082c0.055-0.172,0.043-0.305,0.184-0.406c-0.087,0.053-0.196,0.096-0.184,0.023l-0.004,0.15
			L89.515,9.06c-0.008,0.096,0.141,0.131,0.021,0.215c-0.142,0.07-0.106-0.137-0.117-0.066c-0.194,0.09-0.059,0.17-0.263,0.156
			c0.018-0.018,0.053-0.049,0.07-0.039c-0.15-0.035-0.34,0.088-0.416-0.078c0.016-0.043,0.01-0.096,0.066-0.09l0.003,0.023
			c0.131-0.156-0.125,0.063-0.105-0.104c0.028,0.09-0.175,0.107-0.27,0.109l0.05,0.102c-0.232,0.382-0.026-0.215-0.313-0.115
			c-0.174,0.111,0.076,0.016-0.023,0.113c-0.129,0.01-0.198-0.076-0.375,0.006c-0.061-0.031-0.179-0.061-0.215-0.18
			c-0.101,0.076-0.359,0.031-0.394,0.16c0.216,0.057,0.163-0.168,0.426-0.068l-0.038,0.131c-0.157,0.031-0.343,0.139-0.459,0.121
			c0.026,0.018,0.043,0.047,0.034,0.072c-0.209,0.099-0.244,0.23-0.467,0.248c-0.057-0.1,0.074-0.111,0.164-0.145
			c-0.162-0.049-0.147,0.023-0.371,0.057C86.486,9.6,86.669,9.649,86.67,9.552l-0.231,0.101l-0.005-0.021
			c0.01,0.166-0.187,0.045-0.318,0.131c-0.348,0.104-0.335,0.322-0.484,0.5c-0.063-0.021-0.091-0.055-0.082-0.1
			c0.104,0.035,0.073-0.014,0.092-0.059c-0.111,0.053-0.304-0.059-0.259-0.145c-0.169,0.109,0.093,0.055-0.003,0.143l-0.254,0.08
			c0.057,0.066,0.149,0.053,0.042,0.158c-0.1,0.059-0.157,0.064-0.298,0.109c0.004-0.047-0.092-0.102,0.017-0.135
			c-0.079-0.002-0.188,0.031-0.2,0.121c0.184,0.012-0.229,0.156-0.066,0.232l-0.177-0.004c0.032-0.01,0.017-0.064,0.075-0.072
			c-0.092-0.096-0.113,0.088-0.16,0.121c-0.063,0.002-0.205,0.053-0.235,0.014c-0.034,0.053-0.161,0.08-0.21,0.031
			c-0.063,0.053,0.029,0.074,0.023,0.121l-0.246,0.1c-0.041-0.057-0.145-0.221-0.119-0.262c-0.064,0.1,0.055,0.197-0.086,0.258
			c0.02-0.162-0.225,0.002-0.182-0.199c-0.122-0.047-0.347,0.08-0.455,0.178c-0.024,0.132,0.162-0.021,0.205,0.078
			c-0.326,0.22-0.199,0.492-0.472,0.58l0.079-0.01c-0.122,0.135-0.107,0.123-0.146,0.252c-0.027-0.143-0.355-0.193-0.588-0.008
			c0.019,0.07,0.208,0.014,0.228,0.131l-0.149,0.121c-0.018-0.002-0.012-0.031-0.001-0.059c-0.114,0.133-0.366,0.033-0.317,0.189
			l-0.257-0.055l0.104,0.023c0.02,0.07-0.119,0.207-0.135,0.25c-0.107,0.181-0.199,0.181-0.336,0.181
			c0.06,0.021,0.205,0.068,0.098,0.178c-0.134-0.168-0.304,0.141-0.372,0.053c-0.048,0.041-0.18,0.063-0.122,0.137l-0.083-0.109
			c0.115,0.15-0.054,0.307-0.155,0.451c-0.15-0.215-0.123,0.146-0.343,0.037c0.102,0.146-0.172,0.266-0.09,0.391
			c-0.088,0.1-0.197-0.02-0.262-0.029l0.008,0.09c-0.105-0.004-0.277,0.185-0.418,0.267l0.027,0.207l-0.088-0.004
			c0.015,0.041-0.042,0.143,0.049,0.125l-0.055,0.053c0.127,0.107-0.033,0.109-0.072,0.27c-0.043,0.01-0.068-0.021-0.065-0.059
			c-0.05,0.055-0.099-0.02-0.169-0.023c0.063-0.018,0.089,0.402,0.262,0.281c0.063,0.029,0.038,0.154-0.027,0.199l-0.146-0.055
			l0.08,0.166c-0.044,0.104-0.152,0.092-0.218,0.156c0.045-0.082-0.119-0.342-0.257-0.135c0.059-0.117,0.026-0.219,0.039-0.293
			c-0.035,0.041-0.062,0.055-0.068-0.051c-0.072,0.191,0.039,0.107-0.053,0.277c-0.107-0.084-0.172-0.063-0.308,0.053l0.153-0.049
			l0.016,0.041c0.041-0.033,0.064-0.033,0.115-0.012c-0.024,0.031,0.014,0.275-0.074,0.255c0.285-0.041-0.051,0.367,0.125,0.334
			c0.021,0.037-0.046,0.148-0.106,0.131c-0.011-0.195-0.19,0.021-0.259-0.051c0.007,0.074,0.147-0.057,0.152,0.041
			c-0.037,0.084-0.143,0.104-0.205,0.129l-0.004-0.047l-0.123,0.098c0.047,0.055,0.168-0.066,0.133,0.068
			c-0.042,0.018-0.076,0.152-0.121,0.121c-0.05-0.1-0.18-0.119-0.143-0.234c-0.04,0.092-0.174,0.369-0.004,0.322l-0.059,0.098
			c0.084-0.039,0.272-0.162,0.178,0.045l-0.021-0.012l0.014,0.186l-0.096,0.027c0.031,0.014,0.048,0.049,0.017,0.1
			c-0.044-0.006-0.085,0.035-0.13,0.008c-0.076,0.152-0.007,0.167,0.018,0.207c-0.033,0.09-0.072,0.109-0.125,0.035
			c-0.067,0.111-0.145,0.324-0.245,0.375c-0.015,0.186,0.039-0.021,0.083,0.111c-0.277,0.041-0.316,0.492-0.402,0.76
			c0.22,0.004-0.008,0.08,0.154,0.197c-0.041-0.082-0.239,0.195-0.21-0.059l-0.03,0.15c-0.14,0.059,0.003-0.265-0.194-0.174
			c-0.05,0.166,0.126,0.346-0.011,0.508c-0.115-0.113-0.004,0.162-0.139,0.063c-0.037-0.055-0.002-0.104,0.004-0.162l-0.039,0.023
			c-0.16,0.342,0.128,0.16,0.159,0.373c-0.055,0.219-0.168,0.133-0.237,0.127c-0.039,0.021-0.055,0.139-0.037,0.207
			c-0.041-0.16,0.17-0.215,0.236-0.125c-0.189,0.043-0.122,0.311-0.078,0.387c0.272-0.248,0.08-0.207,0.357-0.432
			c-0.036-0.053-0.18-0.098-0.063-0.244c0.033,0.129,0.083,0.018,0.115-0.004c-0.094,0.004,0.006-0.131-0.012-0.193
			c0.084-0.025,0.154,0.166,0.246,0.008l-0.179-0.1c0.053-0.057,0.13,0.078,0.134-0.08c0.072,0.113,0.16,0.035,0.125,0.236
			c0.242-0.168,0.03-0.383,0.031-0.588l0.032,0.059c-0.036-0.059-0.001-0.123,0.011-0.179c0.092-0.096,0.044,0.125,0.109,0.115
			l0.076-0.185l0.017,0.002c-0.007-0.061-0.002-0.113,0.053-0.109c0.033,0.08,0.087,0.123,0.12,0.182l-0.047-0.244
			c0.055,0.045,0.178-0.115,0.161,0.041l0.099-0.293l0.134,0.033c0.008-0.076-0.015-0.094-0.065-0.02
			c0.068-0.08-0.029-0.527,0.193-0.359c-0.008-0.273,0.09-0.32,0.166-0.609c0.002,0.253,0.263-0.152,0.201,0.085
			c0.119-0.093,0.004-0.191,0.037-0.296c0.1-0.064,0.193,0.045,0.184,0.164l0.009-0.141l0.022,0.014l-0.015-0.135
			c0.12-0.066,0.132,0.045,0.206-0.053l-0.092-0.082l0.102-0.037c-0.061,0-0.055-0.08-0.01-0.158l0.023,0.018l0.041-0.104
			c0.002,0.127,0.078-0.068,0.121,0.021c0.059-0.074,0.059-0.076,0.133-0.227l-0.085-0.02c0.063-0.221,0.106,0.061,0.211-0.08
			l-0.085-0.045c0.274-0.113,0.164-0.408,0.359-0.498c-0.05,0.096,0.059,0.144,0.037,0.123c0.07-0.145,0.26-0.324,0.275-0.525
			c0.144,0.043,0.185,0.057,0.34-0.029c0.07-0.102,0.071-0.123,0.039-0.207c0.108-0.061,0.214-0.266,0.29-0.199
			c-0.037-0.078,0.087-0.064,0.086-0.158l0.037,0.02l-0.072-0.059c0.297,0.004,0.17-0.335,0.449-0.349l-0.01,0.044l0.039-0.091
			c0.037,0.021,0.029,0.068,0.063,0.107l0.322-0.248l-0.107-0.004c0.06-0.064,0.046-0.17,0.161-0.188
			c-0.038,0.213,0.11-0.082,0.201-0.01l-0.047,0.086c0.089-0.084,0.089-0.084,0.022-0.154c0.1-0.123,0.193,0.076,0.242-0.092
			l-0.082,0.059c-0.057-0.023-0.046-0.133,0.008-0.174c0.023,0,0.084,0.006,0.053,0.047c0.07-0.113,0.258-0.166,0.28-0.229
			c0.072-0.014,0.093,0.057,0.077,0.096c0.173-0.211,0.106-0.049,0.283-0.264l0.023,0.049l0.041-0.104l0.168,0.025l-0.074-0.035
			c0.066-0.055,0.092-0.117,0.193-0.146l0.006,0.09c0.188-0.156,0.313-0.016,0.46-0.223c0.02,0.006,0.001,0.043-0.007,0.063
			c0.126-0.212,0.206,0.053,0.322-0.185l0.041,0.072l0.061-0.091l0.041,0.099v-0.179l0.103,0.074l0.013-0.061
			c0.186,0.146,0.253-0.057,0.445,0.027l-0.078-0.113c0.215-0.418,0.817-0.18,1.181-0.441l0.028,0.105l0.127-0.18
			c0.118,0.045-0.023,0.107,0.021,0.146c0.164-0.119,0.021-0.182,0.228-0.275c0.135,0.037-0.014,0.086-0.055,0.139
			c0.188-0.111,0.473-0.256,0.633-0.242l-0.008-0.037c0.126-0.086,0.315-0.102,0.469-0.141c0.008,0.049-0.029,0.064-0.063,0.086
			c0.057-0.006,0.139,0.01,0.174-0.053l-0.034,0.105c0.122-0.012,0.326-0.148,0.378-0.049c-0.024-0.037-0.038-0.115,0.065-0.135
			c0.094,0.145,0.26-0.139,0.441-0.088c-0.01,0.039-0.127,0.078-0.094,0.072c0.092,0.023,0.148-0.066,0.212-0.133l-0.011,0.07
			l0.369-0.168c0.088,0.15,0.355-0.097,0.355,0.025c0.137-0.02-0.132-0.049,0.039-0.101c0.061,0.062,0.152-0.064,0.164,0.042
			l-0.016,0.018l0.122-0.033l-0.06,0.117c0.102-0.039,0.16-0.156,0.152-0.236c0.109,0.041,0.246-0.031,0.307,0.055l-0.031,0.033
			c0.275-0.09,0.514,0.205,0.706-0.008c0.02,0.014,0.022,0.039-0.013,0.043l0.176-0.02l-0.03,0.083l0.273-0.164l0.002,0.057
			c0.196-0.01,0.494-0.082,0.738-0.135l-0.033,0.033c0.262-0.119,0.271,0.014,0.462-0.07l-0.018,0.025l0.178-0.025l-0.033,0.057
			c0.119-0.135,0.4,0.096,0.305,0.012c0.07-0.061,0.191-0.139,0.205-0.209c0.196-0.033,0.057,0.063,0.186,0.092
			c0.143-0.014,0.156-0.107,0.356-0.084l0.003,0.055c0.089-0.023,0.142-0.068,0.266-0.092l-0.033,0.029
			c0.19-0.141,0.277,0.125,0.406-0.129c0.094,0.031,0.255-0.023,0.26,0.084c0.25-0.104,0.447-0.162,0.697-0.24
			c0.066,0.17,0.053-0.02,0.224,0.063l-0.026-0.09c0.362-0.068,0.815,0.107,1.213,0.012l0.025,0.09L96.3,10.35
			c0.442-0.027,1.013-0.076,1.363-0.139c0.105-0.072,0.258-0.217,0.445-0.215l-0.017,0.016c0.307-0.113,0.631-0.213,0.987-0.236
			c-0.011,0.045,0.026,0.061-0.006,0.096c0.06-0.121,0.203-0.049,0.276-0.064l-0.102-0.049c0.079-0.111,0.238-0.057,0.304,0
			l0.132-0.133l0.037,0.031l0.016-0.055l0.113,0.104c0.031-0.031,0.23-0.119,0.266-0.25c0.023,0.033,0.179,0.027,0.071,0.082
			l0.575-0.117l-0.1-0.02c-0.035-0.09,0.117-0.191,0.217-0.174c-0.095,0.107,0.026,0.135,0.096,0.188
			c0.063-0.068-0.091-0.063-0.063-0.123c0.079-0.086,0.272-0.176,0.335-0.152L101.2,9.194c0.12-0.076,0.228,0.063,0.354,0.016
			c0.093-0.111,0.2-0.07,0.124-0.219c0.156-0.084,0.1,0.088,0.158,0.084c0.055-0.1,0.303-0.127,0.361-0.057
			c0.012-0.248,0.474-0.082,0.439-0.281l0.176,0.053c-0.014-0.051-0.029-0.176,0.072-0.238c0.122,0.016,0.133,0.113,0.185,0.154
			l-0.004-0.215c0.674-0.029,1.394-0.505,2.096-0.693c0.255-0.197,0.571-0.445,0.893-0.629l-0.022,0.041l0.341-0.154l-0.275,0.068
			c0.055-0.066,0.088-0.131,0.154-0.17c0.385-0.145,0.9-0.361,1.225-0.759c0.112-0.381,0.298,0.027,0.437-0.297l0.002,0.098
			c0.221-0.258,0.317-0.426,0.475-0.748c0.127,0.197,0.156-0.148,0.217-0.039l-0.044-0.087c0.028-0.004,0.062-0.016,0.094-0.025
			c0.01,0.105-0.022,0.205-0.121,0.193c0.188-0.029,0.038,0.26,0.038,0.26c-0.003-0.012,0.211,1.589,0.035,3.478
			c-0.01,1-0.264,1.958-0.438,2.735C108.448,11.76,108.169,12.492,108.479,12.008"/>
		<path fill="#5D5D5D" d="M135.793,6.615c-0.295-0.045-0.686,0.505-0.879,0.669c-0.11,0.092-0.22,0.178-0.351,0.244
			c-0.187,0.096-0.43,0.023-0.587,0.119c-0.192,0.121-0.22,0.285-0.469,0.354c-0.157,0.045-0.321,0.055-0.481,0.107
			c-0.289,0.094-0.615,0.193-0.902,0.336c-0.611-0.544-0.849-0.755,0,0c-0.113,0.049-0.22,0.111-0.314,0.18
			c-0.014,0.01-0.036,0.021-0.055,0.031c-0.043-0.002-0.094-0.014-0.148-0.037c-0.606,0.379-1.331,0.158-1.824,0.74l-0.056-0.133
			c-0.11-0.031-0.105,0.066-0.199,0.109l-0.01-0.037c-0.242,0.012-0.477,0.229-0.631,0.201l0.038,0.156
			c-0.132,0.051-0.106-0.101-0.219,0.029l-0.02-0.08l-0.119,0.193c-0.062-0.275-0.393,0.09-0.532-0.004
			c-0.164,0.098-0.468,0.318-0.751,0.328c-0.086-0.129-0.416-0.055-0.645-0.078c-0.398,0.127-0.975,0.305-1.506,0.373l0.044,0.176
			l-0.133,0.043c-0.007-0.037-0.028-0.055-0.012-0.08c-0.146-0.188-0.306,0.113-0.44,0.004c0.101,0.154,0.101,0.012,0.181,0.004
			c0.129,0.068,0.056,0.258-0.117,0.193l-0.004-0.039l-0.086,0.111c-0.038-0.141-0.145-0.189-0.18-0.328
			c-0.446,0.105-0.719,0.402-1.196,0.41c0.024-0.164-0.333,0.098-0.276-0.193c-0.266,0.148,0.076,0.213-0.023,0.427
			c-0.079,0.01-0.152,0.102-0.181,0c0.027-0.072-0.088-0.164-0.026-0.193l-0.188,0.039c-0.02-0.018,0.017-0.061,0.034-0.082
			c-0.366,0.199-0.704-0.109-1.032,0.086c-0.016,0.103,0.142,0.016,0.126,0.117c-0.329,0.238-0.328-0.144-0.64,0.031l0.056-0.148
			c-0.098,0.107-0.133,0.234-0.315,0.14c-0.044-0.162,0.136-0.148,0.212-0.236c-0.117,0.006-0.416,0.08-0.311,0.22
			c-0.139,0.066-0.203-0.074-0.281-0.109c0.001,0.039,0.141,0.093,0.063,0.177c-0.2-0.072-0.503-0.063-0.742-0.063
			c0-0.041-0.021-0.101-0.001-0.119c-0.18,0.218-0.182-0.145-0.439-0.086c-0.697,0.1-1.604,0.359-2.314,0.285
			c-0.152,0.215-0.377,0.223-0.604,0.271l-0.022-0.285l-0.189,0.092c-0.074-0.086,0.146-0.053,0.01-0.162l-0.069,0.178
			c-0.016-0.104-0.483-0.066-0.167-0.273l-0.727,0.002c-0.163-0.018-0.102,0.236-0.278,0.158c-0.036-0.086,0.065-0.057,0.053-0.16
			c-0.532-0.23-0.638,0.531-1.138,0.384l0.043-0.037c-0.088,0.072-0.252,0.057-0.254,0.1c0.053,0.289,0.096-0.156,0.242,0.021
			c-0.02,0.242-0.195,0.125-0.192,0.309c-0.114-0.092-0.188,0.043-0.293,0.053c-0.17-0.158-0.428-0.057-0.551-0.252
			c-0.09,0.072-0.199,0.309-0.386,0.313c-0.124-0.195,0.044-0.18-0.138-0.26l-0.039,0.141c-0.156-0.023-0.129-0.064-0.121-0.129
			c-0.169-0.008-0.148,0.189-0.357,0.096l0.125-0.135c-0.16,0.053-0.223,0.023-0.439,0.01c0.006-0.082,0.094-0.072,0.158-0.049
			c-0.114-0.213-0.207,0.084-0.271,0.061c0.017,0.063,0.168,0.094,0.091,0.232c-0.107-0.031-0.234,0.186-0.305,0.018l0.119-0.137
			c-0.229,0.107-0.126,0.178-0.381,0.119c0.014-0.014,0.008-0.049,0.012-0.076c-0.164,0.176-0.375,0.01-0.615-0.008l0.046-0.039
			c-0.018,0.01-0.034,0.023-0.049,0.033c-0.066,0.057-0.111,0.137-0.154,0.127c0.016,0.01,0.021,0.018,0.032,0.027
			c0.091,0.068,0.069,0.113,0.083,0.232c-0.111-0.143-0.188-0.018-0.295,0.078c-0.01,0.006-0.023,0.016-0.033,0.023
			c-0.035,0.029-0.072,0.043-0.111,0.051c-0.018,0.004-0.036,0.004-0.056,0.002c-0.018,0-0.034-0.004-0.054-0.01
			c-0.006-0.002-0.012,0-0.019-0.004c0.004-0.078,0.068-0.174,0.149-0.102c0.002,0,0.002,0,0.006,0.002
			c0.006-0.016,0.01-0.033,0.017-0.051c0.079-0.221,0.102-0.408,0.269-0.506c-0.113,0.051-0.244,0.088-0.217-0.012l-0.033,0.225
			l-0.174-0.002c-0.025,0.145,0.144,0.227-0.012,0.326c-0.176,0.08-0.1-0.227-0.125-0.125c-0.24,0.102-0.094,0.242-0.328,0.182
			c0.021-0.02,0.064-0.061,0.087-0.039c-0.171-0.082-0.409,0.057-0.473-0.205c0.023-0.064,0.022-0.143,0.089-0.123l-0.001,0.043
			c0.179-0.205-0.153,0.059-0.106-0.186c0.02,0.143-0.219,0.121-0.329,0.098l0.044,0.164c-0.311,0.484-0.031-0.25-0.309-0.248
			c-0.013,0-0.027,0-0.042,0.004c-0.217,0.121,0.089,0.039-0.042,0.162c-0.152-0.021-0.221-0.164-0.438-0.084
			c-0.066-0.053-0.201-0.129-0.228-0.309c-0.129,0.088-0.421-0.035-0.48,0.15c0.246,0.127,0.213-0.217,0.506-0.012l-0.059,0.188
			c-0.189,0.014-0.418,0.127-0.553,0.08c0.03,0.029,0.045,0.076,0.033,0.115c-0.258,0.096-0.312,0.283-0.572,0.258
			c-0.056-0.16,0.098-0.146,0.207-0.174c-0.184-0.111-0.176,0.01-0.439-0.014c-0.032-0.139,0.174-0.012,0.186-0.154l-0.281,0.08
			l-0.004-0.031c-0.008,0.242-0.218,0.004-0.385,0.096c-0.41,0.07-0.423,0.4-0.613,0.63c-0.072-0.053-0.1-0.109-0.086-0.174
			c0.119,0.086,0.086,0.008,0.111-0.058c-0.133,0.046-0.343-0.18-0.281-0.289c-0.208,0.109,0.102,0.111-0.021,0.209l-0.302,0.039
			c0.059,0.113,0.167,0.121,0.031,0.24c-0.124,0.059-0.192,0.047-0.363,0.068c0.014-0.064-0.091-0.174,0.039-0.189
			c-0.092-0.027-0.223-0.012-0.246,0.113c0.207,0.074-0.285,0.16-0.105,0.32l-0.208-0.064c0.044-0.006,0.029-0.086,0.098-0.078
			c-0.093-0.168-0.14,0.086-0.199,0.121c-0.073-0.018-0.244,0.008-0.275-0.059c-0.046,0.064-0.196,0.061-0.245-0.025
			c-0.079,0.057,0.021,0.121,0.011,0.184l-0.297,0.061c-0.043-0.098-0.14-0.369-0.104-0.418c-0.087,0.119,0.037,0.305-0.133,0.336
			c0.046-0.217-0.265-0.092-0.186-0.355c-0.135-0.115-0.418-0.049-0.553,0.057c-0.049,0.184,0.188,0.033,0.224,0.195
			c-0.406,0.188-0.301,0.623-0.63,0.646l0.094,0.018c-0.163,0.146-0.149,0.123-0.216,0.289c-0.008-0.209-0.384-0.445-0.688-0.307
			c0.007,0.104,0.239,0.125,0.238,0.295l-0.197,0.093c-0.02-0.01-0.01-0.048,0.01-0.082c-0.16,0.123-0.43-0.121-0.403,0.119
			l-0.287-0.207l0.118,0.092c0.008,0.103-0.187,0.208-0.214,0.261c-0.17,0.184-0.276,0.131-0.438,0.059
			c0.068,0.061,0.229,0.203,0.076,0.293c-0.121-0.301-0.39,0.018-0.449-0.139c-0.064,0.029-0.221-0.008-0.176,0.117l-0.067-0.191
			c0.095,0.268-0.145,0.361-0.305,0.488c-0.117-0.369-0.186,0.117-0.412-0.164c0.076,0.252-0.277,0.24-0.217,0.453
			c-0.132,0.074-0.225-0.15-0.297-0.211l-0.021,0.121c-0.121-0.076-0.387,0.041-0.579,0.045l-0.036,0.281l-0.101-0.068
			c0.003,0.064-0.097,0.154,0.015,0.193l-0.082,0.027c0.111,0.229-0.075,0.117-0.176,0.289c-0.055-0.018-0.074-0.074-0.058-0.121
			c-0.077,0.037-0.104-0.094-0.188-0.145c0.082,0.025-0.052,0.545,0.204,0.531c0.063,0.082-0.015,0.213-0.108,0.215L96.13,16.1
			l0.03,0.258c-0.096,0.094-0.215-0.002-0.319,0.027c0.084-0.066-0.008-0.498-0.25-0.352c0.113-0.102,0.113-0.248,0.157-0.326
			c-0.053,0.02-0.091,0.016-0.06-0.113c-0.157,0.174,0.006,0.158-0.17,0.293c-0.094-0.18-0.179-0.205-0.381-0.168l0.201,0.057
			l0.004,0.061c0.057-0.01,0.086,0.01,0.135,0.072c-0.037,0.02-0.092,0.344-0.186,0.256c0.351,0.16-0.204,0.4,0.016,0.492
			c0.01,0.063-0.112,0.154-0.179,0.074c0.072-0.225-0.235-0.123-0.286-0.256c-0.025,0.086,0.199,0.049,0.164,0.162
			c-0.083,0.07-0.217,0.008-0.302-0.014l0.02-0.057l-0.191,0.016c0.031,0.1,0.229,0.055,0.126,0.182
			c-0.056-0.012-0.158,0.113-0.198,0.045c-0.014-0.158-0.158-0.283-0.064-0.387c-0.086,0.074-0.368,0.279-0.145,0.365l-0.113,0.064
			c0.114,0.027,0.391,0.035,0.186,0.197l-0.02-0.037l-0.066,0.227l-0.123-0.043c0.029,0.041,0.033,0.098-0.025,0.131
			c-0.047-0.039-0.111-0.021-0.153-0.094c-0.155,0.115-0.083,0.193-0.071,0.254c-0.08,0.078-0.138,0.064-0.164-0.063
			c-0.137,0.061-0.337,0.229-0.481,0.201c-0.108,0.189,0.058,0.01,0.044,0.189c-0.343-0.188-0.613,0.275-0.842,0.5
			c0.254,0.197-0.049,0.08,0.071,0.341c-0.001-0.121-0.383-0.014-0.211-0.248l-0.118,0.127c-0.195-0.064,0.15-0.271-0.131-0.351
			c-0.146,0.121-0.048,0.472-0.289,0.505c-0.072-0.219-0.092,0.16-0.19-0.066c-0.011-0.092,0.052-0.105,0.091-0.156l-0.057-0.014
			c-0.359,0.188,0.061,0.277-0.021,0.525c-0.185,0.17-0.255-0.029-0.325-0.105c-0.052-0.018-0.119,0.072-0.137,0.15
			c0.033-0.184,0.279-0.023,0.311,0.121c-0.224-0.146-0.283,0.17-0.284,0.289c0.414,0.035,0.187-0.105,0.613-0.064
			c-0.007-0.092-0.147-0.266,0.069-0.311c-0.035,0.164,0.08,0.096,0.132,0.102c-0.109-0.078,0.079-0.123,0.094-0.203
			c0.109,0.051,0.082,0.311,0.277,0.23l-0.15-0.266c0.094-0.012,0.105,0.199,0.201,0.037c0.021,0.184,0.172,0.182,0.012,0.357
			c0.378,0.043,0.26-0.367,0.365-0.584l0.01,0.094c-0.01-0.094,0.061-0.139,0.102-0.193c0.156-0.029-0.012,0.178,0.069,0.221
			l0.183-0.141l0.019,0.014c0.024-0.068,0.054-0.125,0.115-0.076c0.002,0.119,0.04,0.217,0.05,0.307l0.072-0.311
			c0.038,0.094,0.263,0.021,0.166,0.182l0.266-0.246l0.143,0.148c0.049-0.08,0.025-0.113-0.072-0.072
			c0.125-0.035,0.24-0.601,0.418-0.236c0.135-0.292,0.256-0.298,0.479-0.572c-0.114,0.295,0.382,0.039,0.199,0.258
			c0.184-0.01,0.091-0.215,0.18-0.309c0.147,0.008,0.21,0.207,0.144,0.338l0.076-0.158l0.02,0.033l0.049-0.166
			c0.174,0.018,0.133,0.158,0.268,0.105l-0.068-0.172l0.137,0.041c-0.074-0.053-0.022-0.129,0.056-0.197l0.019,0.037l0.091-0.094
			c-0.05,0.156,0.119-0.023,0.137,0.115c0.098-0.047,0.1-0.051,0.248-0.174l-0.091-0.09c0.163-0.221,0.103,0.154,0.282,0.059
			l-0.08-0.113c0.373,0.061,0.361-0.375,0.631-0.34c-0.096,0.086,0.014,0.217-0.006,0.178c0.143-0.129,0.43-0.236,0.521-0.474
			c0.158,0.15,0.201,0.195,0.417,0.189c0.123-0.076,0.132-0.104,0.123-0.234c0.155,0.006,0.345-0.201,0.415-0.072
			c-0.021-0.119,0.12-0.027,0.149-0.15l0.041,0.049l-0.072-0.123c0.357,0.188,0.307-0.338,0.646-0.188l-0.023,0.055l0.074-0.096
			c0.038,0.051,0.016,0.105,0.043,0.178l0.457-0.154l-0.131-0.068c0.091-0.049,0.103-0.201,0.245-0.162
			c-0.102,0.266,0.155-0.053,0.244,0.09l-0.077,0.092c0.127-0.064,0.127-0.064,0.064-0.193c0.154-0.115,0.216,0.207,0.318,0.004
			l-0.115,0.039c-0.063-0.066-0.023-0.209,0.055-0.23c0.025,0.012,0.101,0.051,0.049,0.088c0.117-0.104,0.346-0.111,0.385-0.188
			c0.09,0.012,0.098,0.117,0.073,0.168c0.251-0.217,0.14-0.018,0.395-0.23l0.022,0.08l0.068-0.125l0.198,0.117l-0.085-0.082
			c0.093-0.047,0.136-0.119,0.263-0.109l-0.009,0.127c0.253-0.15,0.372,0.094,0.582-0.148c0.023,0.013-0.007,0.064-0.022,0.089
			c0.188-0.259,0.238,0.146,0.422-0.134c-0.006,0.043,0.035,0.082,0.036,0.121l0.09-0.103l0.033,0.158l0.029-0.253l0.112,0.144
			l0.021-0.085c0.196,0.271,0.307,0.002,0.521,0.187l-0.075-0.191c0.313-0.523,0.984,0.006,1.443-0.266l0.021,0.16l0.172-0.221
			c0.133,0.104-0.042,0.148,0.007,0.221c0.204-0.127,0.05-0.252,0.3-0.344c0.15,0.086-0.025,0.127-0.078,0.195
			c0.227-0.117,0.567-0.285,0.754-0.203l-0.002-0.061c0.152-0.092,0.378-0.045,0.555-0.072c0.004,0.072-0.037,0.09-0.081,0.109
			c0.065,0.002,0.159,0.043,0.206-0.037l-0.051,0.146c0.139,0.012,0.391-0.145,0.437,0.018c-0.022-0.063-0.027-0.184,0.092-0.189
			c0.089,0.238,0.311-0.143,0.514-0.031c-0.018,0.061-0.156,0.092-0.117,0.092c0.103,0.053,0.176-0.076,0.254-0.154l-0.017,0.1
			l0.437-0.156c0.082,0.246,0.42-0.055,0.4,0.125c0.159,0.002-0.142-0.102,0.059-0.139c0.061,0.098,0.181-0.059,0.181,0.102
			l-0.02,0.021l0.14-0.02l-0.082,0.162c0.116-0.041,0.2-0.203,0.202-0.324c0.118,0.082,0.28,0.002,0.337,0.145l-0.043,0.041
			c0.322-0.084,0.538,0.42,0.789,0.158c0.02,0.023,0.018,0.063-0.021,0.061l0.197,0.012l-0.05,0.119l0.33-0.174l-0.004,0.08
			c0.214,0.035,0.555,0,0.836-0.02l-0.045,0.039c0.311-0.119,0.289,0.082,0.519-0.002l-0.028,0.033l0.217,0.006l-0.05,0.076
			c0.167-0.168,0.446,0.242,0.353,0.09c0.096-0.074,0.256-0.158,0.286-0.26c0.234,0,0.054,0.107,0.196,0.182
			c0.17,0.014,0.205-0.125,0.433-0.043l-0.008,0.082c0.109-0.012,0.178-0.066,0.327-0.072l-0.044,0.035
			c0.25-0.16,0.299,0.252,0.5-0.096c0.102,0.07,0.297,0.025,0.285,0.188c0.307-0.096,0.545-0.133,0.854-0.201
			c0.045,0.266,0.065-0.018,0.247,0.133l-0.01-0.139c0.43-0.021,0.926,0.33,1.403,0.27l0.016,0.144l0.094-0.158
			c0.513,0.074,1.188,0.104,1.602,0.082c0.133-0.082,0.33-0.264,0.544-0.221l-0.021,0.016c0.37-0.098,0.759-0.176,1.172-0.117
			c-0.021,0.064,0.022,0.102-0.021,0.143c0.086-0.158,0.24-0.021,0.326-0.029l-0.11-0.094c0.104-0.15,0.282-0.033,0.351,0.064
			l0.171-0.176l0.038,0.059l0.024-0.078l0.116,0.18c0.042-0.045,0.279-0.117,0.338-0.305c0.023,0.063,0.201,0.09,0.07,0.137
			l0.676-0.012l-0.112-0.057c-0.027-0.141,0.162-0.25,0.272-0.197c-0.121,0.131,0.013,0.205,0.085,0.303
			c0.082-0.086-0.095-0.117-0.057-0.199c0.104-0.109,0.338-0.18,0.405-0.123l-0.06,0.061c0.148-0.066,0.253,0.172,0.403,0.133
			c0.122-0.133,0.237-0.047,0.175-0.283c0.19-0.084,0.102,0.152,0.168,0.166c0.077-0.131,0.363-0.102,0.416,0.016
			c0.055-0.373,0.557,0.041,0.548-0.264l0.19,0.141c-0.008-0.08-0.007-0.264,0.118-0.318c0.139,0.066,0.133,0.211,0.188,0.287
			l0.029-0.311c0.775,0.219,1.658-0.244,2.494-0.146c0.335-0.137,0.733-0.371,1.138-0.453l-0.035,0.051l0.417-0.031l-0.322-0.055
			c0.077-0.055,0.128-0.131,0.213-0.148c0.336-0.004,0.757-0.014,1.149-0.135c-0.059,0.119-0.154,0.199-0.272,0.137
			c0.276,0.066-0.104,0.346-0.104,0.346c-0.014-0.014-0.531,2.167-0.967,4.368c-0.113,0.609-0.25,1.208-0.388,1.79
			c0.068-0.008,0.136-0.018,0.2-0.025c0.389-0.07,0.391,0.422,0.66,0.121c-0.03,0.029,0.001,0.109,0.002,0.162
			c0.354-0.018,0.8-0.068,1.104,0.023c0.113-0.113-0.096-0.186-0.099-0.24c0.119,0.049,0.218,0.232,0.424,0.141
			c-0.155-0.182,0.283-0.285,0.461-0.295c-0.111,0.115-0.38,0.104-0.31,0.314c0.276,0.119,0.327-0.045,0.466-0.188l-0.077,0.193
			c0.462-0.242,0.476,0.289,0.958-0.061c0.017-0.141-0.211,0-0.191-0.143c0.147-0.092,0.299-0.121,0.453-0.129l-0.077-0.025
			c0.521-0.515,0.446-1.289,0.731-1.923l-0.1,0.063c-0.096-0.115-0.08-0.266-0.115-0.383c0.063-0.004,0.24,0.127,0.227-0.078
			c-0.049,0.033-0.111,0.107-0.164,0.074c0.42-0.518,0.551-1.718,0.864-2.599c0.055-0.543,0.182-1.089,0.32-1.632
			c0.027,0.014,0.053,0.025,0.081,0.029c0.016-0.139,0.044-0.35,0.103-0.463c0.121-0.23,0.208-0.285,0.195-0.57
			c-0.008-0.178-0.016-0.35,0.025-0.525c0.086-0.357,0.189-0.633,0.209-0.986c0.023,0.018,0.021,0.018,0-0.002
			c0.002-0.053,0.011-0.102,0.01-0.162c-0.01-0.348,0.053-0.512,0.199-0.826c0.078-0.162,0.061-0.342,0.132-0.511
			c0.075-0.172,0.104-0.254,0.106-0.443c0.005-0.193,0.15-0.385,0.184-0.578c0.032-0.199,0.169-0.332,0.211-0.525
			c0.053-0.25-0.061-0.578-0.057-0.836C135.703,6.996,135.779,6.613,135.793,6.615"/>
		<path fill="#5D5D5D" d="M147.976,14.683c-0.087-0.195-0.313-0.035-0.45,0.035c-0.063,0.031-0.116,0.064-0.187,0.094
			c-0.009,0.008-0.225,0.078-0.21,0.068c-0.088,0.064-0.09,0.137-0.179,0.201c-0.05,0.039-0.216,0.09-0.282,0.117
			c-0.18,0.082-0.372,0.102-0.561,0.174c-0.174,0.064-0.279,0.101-0.438,0.21c-0.146,0.109-0.306,0.203-0.466,0.291
			c-0.121,0.068-0.252,0.195-0.389,0.242c-0.166,0.057-0.301,0.07-0.466,0.143c-0.214,0.092-0.412,0.051-0.636,0.1
			c-0.072,0.016-0.156,0.066-0.239,0.109c-0.011-0.01-0.021-0.016-0.03-0.023h-0.004l-0.013,0.012
			c-0.05,0.029-0.095,0.057-0.14,0.082c-0.162,0.029-0.275-0.016-0.432,0.09c-0.109,0.074-0.297,0.199-0.292,0.363
			c-0.025,0.004-0.052,0.012-0.075,0.016l0.005,0.014c-0.182-0.082-0.523,0.307-0.715,0.232c-0.23,0.174-0.654,0.539-1.077,0.641
			c-0.142-0.137-0.628,0.029-0.969,0.049c-0.581,0.258-1.419,0.634-2.205,0.828l0.088,0.232l-0.197,0.07
			c-0.015-0.053-0.05-0.072-0.027-0.104c-0.238-0.225-0.443,0.207-0.654,0.086c0.165,0.186,0.151-0.006,0.27-0.029
			c0.196,0.064,0.107,0.338-0.153,0.281l-0.011-0.053l-0.118,0.164c-0.069-0.178-0.234-0.227-0.303-0.404
			c-0.651,0.215-1.021,0.693-1.742,0.75c0.024-0.221-0.493,0.146-0.43-0.244c-0.389,0.215,0.131,0.283-0.008,0.576
			c-0.119,0.014-0.223,0.139-0.272,0.008c0.038-0.098-0.139-0.203-0.05-0.255l-0.274,0.082c-0.031-0.023,0.021-0.083,0.047-0.115
			c-0.369,0.218-0.729,0.115-1.074,0.128c-0.154,0.008-0.306,0.037-0.453,0.129c-0.02,0.143,0.208,0.002,0.191,0.143
			c-0.482,0.35-0.496-0.182-0.958,0.061l0.077-0.193c-0.139,0.143-0.189,0.307-0.468,0.188c-0.068-0.211,0.197-0.199,0.312-0.314
			c-0.178,0.01-0.616,0.113-0.461,0.295c-0.207,0.092-0.305-0.092-0.424-0.141c0.003,0.055,0.214,0.125,0.099,0.24
			c-0.304-0.092-0.75-0.041-1.104-0.023c-0.001-0.053-0.032-0.133-0.002-0.162c-0.27,0.301-0.271-0.191-0.66-0.121
			c-0.064,0.008-0.132,0.018-0.199,0.025c-1.018,0.123-2.282,0.432-3.294,0.279c-0.237,0.277-0.579,0.277-0.925,0.33l-0.02-0.385
			l-0.29,0.113c-0.108-0.121,0.223-0.064,0.024-0.217l-0.118,0.232c-0.015-0.137-0.724-0.113-0.231-0.371
			c-0.365-0.006-0.737-0.053-1.107-0.084c-0.244-0.033-0.166,0.305-0.433,0.186c-0.045-0.113,0.104-0.066,0.093-0.205
			c-0.788-0.355-1.009,0.652-1.761,0.41l0.071-0.045c-0.142,0.09-0.389,0.057-0.397,0.107c0.057,0.395,0.16-0.191,0.369,0.055
			c-0.053,0.32-0.31,0.146-0.32,0.393c-0.171-0.135-0.291,0.041-0.459,0.045c-0.257-0.232-0.674-0.129-0.858-0.404
			c-0.148,0.088-0.334,0.393-0.629,0.373c-0.187-0.275,0.074-0.236-0.206-0.361l-0.063,0.184c-0.232-0.053-0.189-0.102-0.174-0.189
			c-0.251-0.033-0.234,0.236-0.539,0.088l0.193-0.164c-0.24,0.051-0.334,0.012-0.659-0.033c0.017-0.105,0.146-0.088,0.241-0.049
			c-0.156-0.293-0.314,0.094-0.409,0.057c0.021,0.082,0.244,0.139,0.117,0.314c-0.158-0.049-0.364,0.227-0.463-0.004l0.19-0.166
			c-0.348,0.115-0.197,0.219-0.577,0.113c0.021-0.012,0.016-0.059,0.025-0.1c-0.264,0.219-0.566-0.025-0.93-0.064l0.073-0.045
			c-0.153,0.055-0.242,0.215-0.322,0.201c0.2,0.115,0.142,0.168,0.146,0.352c-0.252-0.33-0.439,0.332-0.871,0.119
			c0.015-0.107,0.129-0.23,0.244-0.107c0.171-0.309,0.209-0.578,0.491-0.711c-0.175,0.066-0.378,0.096-0.327-0.033l-0.072,0.291
			c-0.102,0-0.183-0.023-0.26-0.025c-0.056,0.182,0.188,0.318-0.056,0.426c-0.272,0.08-0.124-0.313-0.174-0.182
			c-0.376,0.094-0.169,0.307-0.519,0.188c0.037-0.023,0.109-0.07,0.137-0.041c-0.245-0.135-0.624,0.025-0.683-0.336
			c0.041-0.078,0.055-0.184,0.149-0.152l-0.006,0.057c0.271-0.227-0.161,0.014-0.147-0.197c-0.063,0.117-0.354,0.066-0.494,0.031
			l0.043,0.221c-0.567,0.631,0.045-0.432-0.491-0.371c-0.344,0.133,0.126,0.066-0.087,0.209c-0.227-0.045-0.305-0.248-0.644-0.156
			c-0.092-0.092-0.279-0.213-0.289-0.455c-0.206,0.091-0.619-0.125-0.738,0.109c0.343,0.215,0.353-0.248,0.754,0.08l-0.122,0.236
			c-0.281-0.021-0.643,0.092-0.835,0c0.037,0.049,0.055,0.109,0.029,0.16c-0.402,0.078-0.52,0.318-0.91,0.246
			c-0.049-0.223,0.178-0.182,0.346-0.201c-0.25-0.176-0.264-0.012-0.654-0.086c-0.02-0.191,0.262,0.014,0.309-0.172l-0.435,0.057
			v-0.039c-0.062,0.32-0.327-0.029-0.595,0.068c-0.626-0.004-0.716,0.438-1.058,0.695c-0.094-0.084-0.123-0.164-0.086-0.244
			c0.156,0.139,0.128,0.027,0.178-0.059c-0.209,0.039-0.467-0.303-0.354-0.436c-0.335,0.1,0.125,0.166-0.078,0.271l-0.463-0.014
			c0.061,0.164,0.225,0.195-0.012,0.326c-0.197,0.047-0.296,0.023-0.558,0.021c0.034-0.08-0.091-0.244,0.106-0.244
			c-0.13-0.057-0.332-0.055-0.398,0.107c0.292,0.137-0.464,0.16-0.24,0.404l-0.291-0.139c0.064,0.002,0.067-0.105,0.164-0.076
			c-0.092-0.244-0.231,0.078-0.33,0.105c-0.101-0.045-0.364-0.051-0.394-0.145c-0.084,0.076-0.311,0.035-0.359-0.088
			c-0.132,0.059,0,0.162-0.035,0.246l-0.459,0.008c-0.033-0.135-0.1-0.514-0.034-0.568c-0.165,0.141-0.032,0.408-0.298,0.412
			c0.133-0.271-0.362-0.182-0.168-0.512c-0.166-0.188-0.6-0.135-0.834-0.045c-0.128,0.221,0.27,0.094,0.273,0.313
			c-0.662,0.139-0.644,0.729-1.138,0.68l0.134,0.045c-0.29,0.154-0.259,0.123-0.413,0.326c0.053-0.275-0.426-0.675-0.92-0.56
			c-0.025,0.137,0.312,0.225,0.257,0.441l-0.325,0.08c-0.025-0.018,0.004-0.068,0.043-0.107c-0.283,0.133-0.599-0.269-0.639,0.053
			l-0.357-0.345l0.143,0.15c-0.021,0.136-0.346,0.222-0.408,0.283c-0.313,0.195-0.452,0.105-0.665-0.031
			c0.078,0.1,0.262,0.324,0.006,0.406c-0.069-0.43-0.58-0.064-0.613-0.289c-0.107,0.025-0.321-0.074-0.301,0.105l-0.031-0.268
			c0.043,0.375-0.349,0.432-0.633,0.559c-0.034-0.516-0.32,0.098-0.549-0.326c0.02,0.354-0.498,0.25-0.488,0.553
			c-0.221,0.066-0.271-0.252-0.355-0.348l-0.078,0.15c-0.154-0.139-0.59-0.049-0.875-0.092l-0.161,0.357l-0.126-0.115
			c-0.015,0.086-0.201,0.186-0.049,0.262l-0.132,0.018c0.077,0.326-0.153,0.139-0.369,0.349c-0.075-0.037-0.081-0.119-0.038-0.175
			c-0.13,0.031-0.121-0.148-0.223-0.236c0.111,0.057-0.287,0.707,0.096,0.753c0.063,0.125-0.105,0.277-0.244,0.258l-0.162-0.266
			l-0.053,0.352c-0.178,0.102-0.318-0.057-0.486-0.043c0.153-0.064,0.183-0.664-0.233-0.525c0.208-0.105,0.264-0.302,0.36-0.394
			c-0.091,0.016-0.143,0-0.045-0.164c-0.301,0.193-0.056,0.211-0.368,0.349c-0.064-0.261-0.183-0.32-0.499-0.308l0.277,0.117
			l-0.018,0.082c0.088-0.002,0.125,0.035,0.175,0.126c-0.067,0.016-0.269,0.445-0.374,0.307c0.456,0.287-0.451,0.504-0.161,0.67
			c-0.011,0.084-0.224,0.176-0.293,0.061c0.192-0.291-0.303-0.215-0.328-0.406c-0.069,0.107,0.278,0.109,0.181,0.254
			c-0.15,0.076-0.324-0.035-0.444-0.08l0.05-0.074l-0.29-0.018c0.009,0.137,0.319,0.121,0.123,0.271
			c-0.083-0.031-0.28,0.123-0.312,0.023c0.036-0.217-0.134-0.416,0.043-0.533c-0.155,0.078-0.648,0.32-0.348,0.469l-0.193,0.07
			c0.165,0.053,0.57,0.109,0.21,0.297l-0.02-0.049l-0.18,0.292l-0.168-0.078c0.03,0.063,0.015,0.137-0.081,0.176
			c-0.059-0.064-0.162-0.053-0.197-0.154c-0.274,0.137-0.194,0.25-0.197,0.34c-0.146,0.084-0.227,0.063-0.223-0.115
			c-0.227,0.068-0.578,0.275-0.786,0.221c-0.224,0.252,0.083,0.02,0.003,0.27c-0.458-0.299-1.01,0.322-1.416,0.643
			c0.319,0.271-0.063,0.128,0.014,0.447c-0.061-0.115-0.55-0.006-0.254-0.316l-0.212,0.184c-0.281-0.09,0.3-0.39-0.109-0.501
			c-0.264,0.182-0.186,0.673-0.574,0.75c-0.063-0.309-0.178,0.242-0.285-0.072c0.001-0.131,0.105-0.166,0.182-0.244l-0.087-0.008
			c-0.619,0.33,0.032,0.396-0.144,0.768c-0.31,0.275-0.402,0.01-0.503-0.086c-0.088-0.004-0.229,0.16-0.269,0.289
			c0.095-0.301,0.485-0.143,0.502,0.074c-0.348-0.154-0.501,0.355-0.501,0.527c0.671-0.086,0.33-0.244,0.991-0.268
			c-0.004-0.126-0.19-0.363,0.148-0.453c-0.083,0.238,0.108,0.127,0.183,0.131c-0.149-0.102,0.143-0.188,0.188-0.299
			c0.151,0.064,0.062,0.434,0.371,0.311l-0.174-0.369c0.141-0.021,0.117,0.275,0.293,0.047c-0.01,0.252,0.213,0.248-0.054,0.502
			c0.544,0.053,0.453-0.514,0.671-0.816c-0.017,0.041,0.008,0.088-0.008,0.127c0.008-0.127,0.125-0.189,0.199-0.26
			c0.238-0.035-0.06,0.248,0.047,0.313l0.305-0.188l0.023,0.02c0.055-0.094,0.117-0.17,0.193-0.098
			c-0.029,0.164,0.001,0.301-0.01,0.428l0.187-0.424c0.031,0.135,0.379,0.051,0.195,0.266l0.457-0.305l0.165,0.221
			c0.093-0.102,0.072-0.15-0.081-0.111c0.188-0.033,0.538-0.789,0.68-0.268c0.29-0.38,0.47-0.365,0.896-0.695
			c-0.272,0.383,0.544,0.119,0.202,0.389c0.271,0.014,0.206-0.275,0.37-0.395c0.213,0.041,0.233,0.32,0.092,0.488l0.166-0.203
			l0.016,0.051l0.131-0.213c0.25,0.061,0.141,0.24,0.357,0.197l-0.041-0.244l0.187,0.082c-0.089-0.084,0.013-0.178,0.158-0.248
			l0.014,0.055l0.167-0.109c-0.13,0.201,0.185-0.008,0.158,0.186c0.161-0.043,0.162-0.049,0.427-0.186l-0.102-0.139
			c0.326-0.26,0.093,0.227,0.395,0.145l-0.076-0.176c0.526,0.17,0.68-0.404,1.064-0.297c-0.174,0.096-0.066,0.295-0.077,0.242
			c0.259-0.145,0.719-0.23,0.954-0.521c0.175,0.242,0.221,0.316,0.545,0.359c0.21-0.068,0.233-0.104,0.269-0.275
			c0.234,0.055,0.593-0.188,0.647,0.008c0.015-0.166,0.196-0.012,0.282-0.168l0.041,0.072l-0.059-0.181
			c0.461,0.333,0.589-0.359,1.041-0.072l-0.057,0.063l0.145-0.105c0.041,0.078-0.014,0.139-0.002,0.25l0.746-0.099l-0.17-0.117
			c0.153-0.043,0.228-0.242,0.426-0.156c-0.25,0.33,0.249-0.031,0.333,0.176l-0.148,0.102c0.215-0.051,0.215-0.051,0.167-0.238
			c0.272-0.113,0.251,0.33,0.479,0.086l-0.188,0.021c-0.072-0.104,0.039-0.277,0.167-0.289c0.032,0.023,0.132,0.096,0.041,0.133
			c0.214-0.104,0.565-0.055,0.651-0.145c0.13,0.043,0.106,0.184,0.049,0.242c0.456-0.234,0.221,0.008,0.681-0.215l0.005,0.107
			l0.148-0.146l0.264,0.203l-0.101-0.133c0.153-0.035,0.247-0.125,0.437-0.082l-0.057,0.168c0.434-0.141,0.538,0.217,0.94-0.047
			c0.032,0.025-0.03,0.082-0.061,0.111c0.371-0.289,0.32,0.257,0.688-0.084c-0.019,0.057,0.03,0.119,0.018,0.164l0.172-0.115
			l0.003,0.217l0.121-0.328l0.128,0.217l0.063-0.111c0.221,0.404,0.472,0.072,0.752,0.365l-0.063-0.269
			c0.633-0.609,1.532,0.236,2.319-0.047l-0.006,0.217l0.323-0.26c0.183,0.168-0.102,0.186-0.044,0.294
			c0.352-0.123,0.139-0.32,0.551-0.39c0.214,0.143-0.07,0.162-0.168,0.238c0.384-0.117,0.954-0.238,1.229-0.113
			c0.006-0.031,0.022-0.07,0.01-0.08c0.256-0.098,0.6,0.002,0.885-0.012c-0.009,0.098-0.078,0.115-0.151,0.137
			c0.103,0.012,0.242,0.08,0.332-0.021l-0.11,0.186c0.217,0.037,0.642-0.117,0.686,0.101c-0.025-0.083-0.012-0.246,0.178-0.234
			c0.098,0.333,0.517-0.125,0.815,0.059c-0.039,0.08-0.262,0.09-0.198,0.096c0.149,0.093,0.288-0.059,0.428-0.158l-0.046,0.131
			l0.713-0.156c0.091,0.335,0.67-0.018,0.609,0.22c0.253,0.021-0.204-0.154,0.115-0.177c0.08,0.141,0.293-0.057,0.27,0.16
			l-0.035,0.023l0.223-0.008l-0.15,0.203c0.193-0.033,0.346-0.242,0.365-0.4c0.173,0.131,0.438,0.051,0.509,0.246l-0.071,0.049
			c0.519-0.051,0.808,0.637,1.233,0.303c0.026,0.031,0.02,0.084-0.043,0.078l0.314,0.035l-0.088,0.154l0.539-0.201l-0.014,0.104
			c0.338,0.074,0.881,0.063,1.327,0.066l-0.07,0.047c0.496-0.127,0.455,0.146,0.819,0.063l-0.042,0.039l0.317,0.031l-0.079,0.098
			c0.256-0.207,0.639,0.371,0.515,0.16c0.144-0.088,0.386-0.191,0.438-0.318c0.35,0.025,0.072,0.148,0.273,0.262
			c0.249,0.037,0.319-0.145,0.667-0.018l-0.02,0.109c0.17-0.004,0.283-0.072,0.516-0.066l-0.074,0.043
			c0.404-0.188,0.447,0.361,0.789-0.08c0.152,0.1,0.461,0.061,0.43,0.277c0.486-0.1,0.86-0.133,1.335-0.176
			c0.053,0.359,0.102-0.006,0.379,0.205l-0.01-0.189c0.672,0,1.428,0.5,2.182,0.451l0.017,0.189l0.154-0.201
			c0.797,0.143,1.861,0.17,2.514,0.156c0.211-0.104,0.524-0.341,0.866-0.283l-0.035,0.025c0.584-0.111,1.195-0.234,1.848-0.205
			c-0.031,0.086,0.037,0.135-0.031,0.193c0.135-0.224,0.378-0.048,0.517-0.058l-0.175-0.127c0.164-0.199,0.442-0.051,0.552,0.078
			l0.265-0.234l0.062,0.074l0.041-0.107l0.184,0.234c0.065-0.057,0.443-0.164,0.527-0.412c0.039,0.078,0.318,0.115,0.117,0.182
			c0.354-0.01,0.705-0.07,1.061-0.104l-0.179-0.061c-0.05-0.182,0.242-0.363,0.417-0.303c-0.185,0.191,0.028,0.27,0.146,0.391
			c0.124-0.129-0.154-0.145-0.098-0.264c0.157-0.154,0.521-0.291,0.632-0.225l-0.094,0.096c0.229-0.117,0.406,0.189,0.643,0.127
			c0.184-0.191,0.373-0.082,0.26-0.395c0.294-0.121,0.166,0.197,0.273,0.207c0.115-0.168,0.563-0.178,0.655-0.037
			c0.053-0.514,0.863-0.057,0.824-0.465l0.309,0.154c-0.021-0.111-0.033-0.355,0.157-0.453c0.22,0.061,0.226,0.253,0.313,0.343
			l0.021-0.417c0.865,0.105,1.759-0.268,2.659-0.527c-0.037,0.773-0.354,1.72-0.639,2.483c0.115,0.176,0.053,0.449,0.01,0.668
			l-0.287,0.162c0.004,0.23,0.209,0.541,0.008,0.699l-0.048-0.043c-0.021,0.232-0.197,0.4-0.061,0.666
			c-0.072,0.207-0.226,0.385-0.386,0.326c0.216,0.152-0.276,0.445-0.276,0.445c-0.013-0.016-1.145,2.983-2.63,5.943
			c-1.505,3.067-3.465,5.206-4.274,6.494c-0.006,0.201-0.192,0.412-0.026,0.586c-0.159,0.142-0.347-0.135-0.32,0.055
			c0.287,0.012,0.069,0.494,0.401,0.605l-0.156,0.117c0.009,0.141,0.182-0.24,0.219,0.004l-0.07-0.35
			c0.151-0.006,0.252,0.031,0.344,0.121c0.084-0.182-0.035-0.644,0.344-0.576l-0.072,0.053c0.232-0.109,0.25,0.142,0.324,0.167
			l-0.055,0.02l0.28,0.041c-0.196,0.004-0.347,0.355-0.214,0.279c0.348-0.047-0.11-0.031,0.091-0.182
			c0.123-0.098,0.173,0.09,0.218,0.189l0.236-0.156c0.072,0.145-0.166,0.09,0.015,0.174l0.221-0.336
			c0.279,0.313,0.225-0.365,0.584-0.129c-0.172,0.217,0.096,0.1,0.139,0.23l0.501-0.429c0.085,0.004-0.056,0.207,0.009,0.129
			c0.168,0.01,0.097-0.209,0.148-0.248c0.119,0.051,0.383-0.313,0.55-0.098c0.456-0.182-0.101-0.387,0.303-0.568
			c0.155,0.076-0.207,0.268,0.044,0.254l0.263-0.357c0.03,0.082,0.132,0.246-0.009,0.344c0.998-0.684,2.086-0.715,2.57-1.771
			c0.253-0.025,0.046,0.166,0.089,0.338c0.227-0.833,1.029-0.727,1.353-1.361l-0.135-0.094c0.942-0.596,1.203-1.794,1.855-2.687
			l-0.159,0.07c-0.073-0.199-0.003-0.426,0.003-0.617c0.084,0.006,0.266,0.256,0.327-0.059c-0.078,0.037-0.185,0.135-0.243,0.064
			c0.763-0.679,1.401-2.536,2.052-3.891c0.544-1.962,1.434-3.966,1.827-5.891c-0.062,0.293-0.417,0.068-0.271-0.125
			c0.805-0.43,0.156-1.058,0.748-1.558c0.041-0.927,0.574-1.664,0.629-2.513c0.002,0,0.004,0,0.006,0
			c0.164-0.063,0.067-0.393,0.098-0.551c0.006-0.02,0.016-0.039,0.025-0.061h0.006c0.068-0.076,0.06-0.129,0.043-0.193
			c0.002-0.057,0.002-0.113-0.003-0.172l0.028,0.012l0.079-0.293l0.019-0.152l0.008-0.076l0.002-0.039v-0.008v-0.006v-0.002l0,0
			c-0.016-0.014-0.028-0.023-0.046-0.037c0.042-0.158,0.083-0.32,0.078-0.492c-0.006-0.242,0.009-0.426,0.063-0.652
			c0.045-0.179-0.001-0.365,0.035-0.541c0.023-0.117,0.117-0.303,0.139-0.418c0.036-0.195,0.01-0.354,0.084-0.545
			c0.082-0.201,0.117-0.332,0.108-0.558c-0.007-0.209,0.081-0.361,0.089-0.563c0.007-0.186-0.009-0.375-0.012-0.56
			C147.975,15.108,148.031,14.806,147.976,14.683"/>
	</g>
	<g>
		<path fill="#5D5D5D" d="M4.679,24.509l0.817-0.01l0.066,4.762l-0.816,0.012L4.679,24.509z M2.541,25.687L1.05,25.708l0.023,1.774
			l1.492-0.021L2.541,25.687z M1.011,31.007l-0.03-2.138l0.844-0.012l0.02,1.38l3.873-0.053l0.01,0.756L1.011,31.007z M0.221,24.955
			l3.12-0.045l0.047,3.306l-3.12,0.045L0.221,24.955z"/>
		<g>
			<path fill="#5D5D5D" d="M10.37,26.312c0.476,0.309,1.14,0.539,1.48,0.611l-0.478,0.626c-0.338-0.07-0.87-0.234-1.374-0.542
				c-0.426-0.256-0.734-0.502-0.904-0.754c-0.182,0.256-0.479,0.512-0.898,0.777c-0.494,0.324-1.021,0.501-1.359,0.582l-0.493-0.613
				c0.336-0.082,0.995-0.33,1.461-0.652c0.376-0.26,0.654-0.549,0.754-0.9l-1.893,0.027L6.656,24.73l4.79-0.068l0.011,0.744
				l-1.874,0.027C9.7,25.78,9.985,26.062,10.37,26.312 M9.524,28.816l0.031,2.22L8.717,31.05l-0.031-2.222l-2.668,0.037
				l-0.011-0.738l6.196-0.088l0.01,0.74L9.524,28.816z"/>
		</g>
		<polygon fill="#5D5D5D" points="12.165,30.261 12.154,29.502 14.802,29.465 14.779,27.877 12.928,27.901 12.884,24.748 
			13.701,24.738 13.734,27.134 17.621,27.081 17.631,27.836 15.653,27.864 15.674,29.453 18.352,29.416 18.362,30.176 		"/>
		<path fill="#5D5D5D" d="M20.011,24.184l2.584-0.037l0.011,0.667l-2.585,0.035L20.011,24.184z M21.372,29.338
			c-0.928,0.012-1.509,0.17-1.505,0.475c0.003,0.271,0.589,0.48,1.524,0.468c0.924-0.014,1.492-0.216,1.488-0.48
			C22.875,29.465,22.295,29.324,21.372,29.338 M23.877,29.773c0.01,0.658-0.863,1.166-2.476,1.189
			c-1.604,0.021-2.505-0.461-2.515-1.119c-0.01-0.662,0.877-1.169,2.482-1.193C22.982,28.629,23.869,29.113,23.877,29.773
			 M22.733,26.356c0.458,0.152,0.981,0.271,1.327,0.311l-0.44,0.607c-0.22-0.021-0.734-0.087-1.246-0.267
			c-0.467-0.168-0.914-0.453-1.036-0.596c-0.116,0.146-0.557,0.445-1.02,0.625c-0.504,0.193-1.016,0.273-1.235,0.3l-0.459-0.593
			c0.359-0.059,0.87-0.178,1.32-0.348c0.329-0.125,0.637-0.309,0.795-0.492l-1.816,0.025l-0.01-0.666l4.817-0.066l0.01,0.666
			l-1.818,0.025C22.087,26.063,22.399,26.247,22.733,26.356 M18.268,28.436l-0.01-0.736l2.661-0.037l-0.008-0.642l0.872-0.012
			l0.011,0.644l2.659-0.039l0.012,0.736L18.268,28.436z"/>
	</g>
	<g>
		<path fill="#5D5D5D" d="M11,33.528l-0.879,0.012l0.131,9.472l1.948-0.027l-0.118-8.373c-0.004-0.328-0.109-0.595-0.31-0.792
			C11.571,33.622,11.313,33.524,11,33.528"/>
		<path fill="#5D5D5D" d="M2.97,44.942l-0.04-2.87L1,42.099l0.051,3.642c0.006,0.326,0.104,0.596,0.293,0.796
			c0.193,0.203,0.449,0.305,0.76,0.301l10.149-0.141l-0.024-1.72l-9.09,0.127C3.019,45.106,2.972,45.059,2.97,44.942"/>
		<path fill="#5D5D5D" d="M4.411,37.046c0.244,1.212,0.672,2.12,1.273,2.706c0.652,0.629,1.576,0.939,2.74,0.923
			c0.138-0.002,0.278-0.008,0.423-0.02l0.076-0.006l-0.024-1.722l-0.091,0.01c-1.777,0.171-2.716-1.02-2.854-3.649l2.574-0.037
			l-0.024-1.689L0.229,33.68l0.024,1.689l2.604-0.039c-0.031,1.054-0.244,1.923-0.629,2.585c-0.488,0.848-1.188,1.22-2.138,1.146
			L0,39.051l0.023,1.722l0.077,0.004C2.46,40.895,3.905,39.637,4.411,37.046"/>
		<path fill="#5D5D5D" d="M23.771,34.448c-0.01-0.719-0.379-1.094-1.068-1.084l-8.831,0.123l0.023,1.691l7.774-0.109
			c0.107-0.002,0.18,0.029,0.182,0.195l0.044,3.169l-8.863,0.121l0.023,1.736l4.867-0.066l0.019,1.33l-3.955,0.057l0.022,1.687
			l8.037-0.111c0.099-0.002,0.164,0.033,0.166,0.195l0.05,3.53l1.931-0.025l-0.06-4.319c-0.01-0.722-0.375-1.093-1.055-1.083
			L19.9,41.525l-0.019-1.332l5.186-0.072l-0.024-1.734l-1.216,0.018L23.771,34.448z"/>
		<path fill="#5D5D5D" d="M33.618,43.724c-0.003,0.443-0.156,0.783-0.47,1.041c-0.312,0.259-0.686,0.39-1.108,0.396
			c-0.414,0.006-0.769-0.107-1.054-0.333c-0.326-0.262-0.496-0.609-0.521-1.059c-0.025-0.492,0.121-0.869,0.447-1.158
			c0.3-0.258,0.674-0.393,1.116-0.398c0.44-0.006,0.815,0.117,1.11,0.365C33.472,42.859,33.629,43.232,33.618,43.724 M34.499,41.309
			c-0.686-0.533-1.533-0.799-2.524-0.785c-0.952,0.016-1.764,0.291-2.415,0.822c-0.726,0.58-1.09,1.378-1.084,2.374
			c0.002,0.99,0.384,1.783,1.136,2.363c0.677,0.513,1.505,0.767,2.466,0.753c0.941-0.014,1.75-0.281,2.4-0.791
			c0.722-0.568,1.105-1.339,1.13-2.294C35.643,42.728,35.27,41.908,34.499,41.309"/>
		<path fill="#5D5D5D" d="M36.895,34.25c-0.005-0.328-0.104-0.596-0.296-0.791c-0.191-0.199-0.446-0.299-0.757-0.295l-8.933,0.125
			l0.024,1.691l7.888-0.109c0.128-0.004,0.179,0.047,0.181,0.176l0.047,3.444l-2.587,0.037l-0.031-2.31l-1.917,0.027l0.032,2.308
			l-4.475,0.063l0.024,1.707l12.024-0.168l-0.023-1.707l-1.142,0.018L36.895,34.25z"/>
		<path fill="#5D5D5D" d="M49.929,34.067c-0.004-0.328-0.103-0.596-0.294-0.789c-0.191-0.201-0.446-0.298-0.758-0.294l-8.932,0.125
			l0.023,1.69l7.89-0.111c0.128,0,0.179,0.049,0.181,0.176l0.049,3.446L45.5,38.347l-0.033-2.31l-1.917,0.027l0.033,2.308
			l-4.477,0.063l0.023,1.707l12.027-0.168l-0.024-1.707l-1.145,0.018L49.929,34.067z"/>
		<path fill="#5D5D5D" d="M46.653,43.542c-0.004,0.443-0.155,0.781-0.469,1.039c-0.313,0.26-0.686,0.392-1.11,0.398
			c-0.412,0.006-0.767-0.109-1.051-0.335c-0.327-0.262-0.498-0.605-0.521-1.059c-0.025-0.49,0.119-0.869,0.447-1.158
			c0.299-0.256,0.672-0.389,1.115-0.396c0.441-0.006,0.814,0.119,1.111,0.365C46.508,42.677,46.666,43.05,46.653,43.542
			 M47.535,41.127c-0.686-0.535-1.535-0.798-2.527-0.785c-0.949,0.014-1.761,0.289-2.413,0.822c-0.724,0.58-1.089,1.376-1.084,2.374
			c0.005,0.99,0.388,1.783,1.137,2.363c0.676,0.513,1.503,0.765,2.465,0.753c0.941-0.014,1.749-0.281,2.401-0.791
			c0.722-0.568,1.103-1.341,1.128-2.298C48.677,42.546,48.305,41.725,47.535,41.127"/>
		<path fill="#5D5D5D" d="M58.209,34.204c0.491-0.006,0.92,0.123,1.277,0.381c0.388,0.281,0.593,0.656,0.618,1.15
			c0.036,0.531-0.138,0.945-0.532,1.267c-0.355,0.297-0.799,0.453-1.317,0.461c-0.483,0.006-0.901-0.117-1.249-0.369
			c-0.376-0.268-0.595-0.639-0.646-1.103c-0.055-0.551,0.109-0.984,0.501-1.324C57.216,34.368,57.67,34.211,58.209,34.204
			 M55.508,38.339c0.764,0.564,1.7,0.841,2.783,0.826c1.068-0.014,1.977-0.314,2.706-0.888c0.81-0.641,1.204-1.507,1.168-2.577
			c-0.035-1.029-0.471-1.849-1.297-2.437c-0.734-0.531-1.637-0.791-2.682-0.777c-1.048,0.014-1.945,0.295-2.674,0.837
			c-0.801,0.609-1.22,1.429-1.246,2.439C54.251,36.843,54.669,37.71,55.508,38.339"/>
		<polygon fill="#5D5D5D" points="52.184,41.1 57.37,41.025 57.396,43.031 59.355,43.003 59.328,41 64.324,40.93 64.301,39.194 
			52.16,39.362 		"/>
		<g>
			<path fill="#5D5D5D" d="M55.229,44.212l-0.041-2.87l-1.958,0.027l0.049,3.641c0.006,0.336,0.107,0.609,0.305,0.807
				c0.195,0.197,0.458,0.297,0.779,0.291l9.135-0.127l-0.024-1.72l-8.062,0.113C55.261,44.376,55.23,44.31,55.229,44.212"/>
			<path fill="#5D5D5D" d="M71.13,35.76c0.877,2.149,2.703,3.257,5.427,3.29h0.084l-0.025-1.876l-0.082,0.002
				c-1.215,0.018-2.204-0.391-2.938-1.21c-0.74-0.824-1.123-1.906-1.141-3.214l-0.001-0.082l-2.612,0.037l0.002,0.082
				c0.019,1.369-0.367,2.481-1.147,3.309c-0.75,0.801-1.756,1.215-2.986,1.232l-0.22-0.004l0.025,1.878l0.082-0.002
				C68.524,39.1,70.386,37.94,71.13,35.76"/>
		</g>
		<polygon fill="#5D5D5D" points="65.229,41.563 70.167,41.494 70.232,46.241 72.148,46.215 72.082,41.467 77.254,41.395 
			77.229,39.692 65.203,39.86 		"/>
		<g>
			<path fill="#5D5D5D" d="M80.344,39.35l9.136-0.129l-0.024-1.733l-8.063,0.111c-0.093,0.002-0.179-0.023-0.181-0.207l-0.068-4.844
				l-1.959,0.027l0.079,5.629C79.273,38.962,79.647,39.36,80.344,39.35"/>
		</g>
		<polygon fill="#5D5D5D" points="85.39,39.932 83.429,39.959 83.466,42.625 78.283,42.697 78.306,44.417 90.318,44.249 
			90.294,42.529 85.427,42.597 		"/>
		<g>
			<path fill="#5D5D5D" d="M98.519,43.882c-0.305,0.236-0.678,0.361-1.111,0.365c-0.424,0.006-0.79-0.102-1.087-0.32
				c-0.331-0.24-0.497-0.558-0.502-0.974c-0.005-0.408,0.144-0.73,0.46-0.977c0.289-0.216,0.657-0.332,1.092-0.337
				c0.424-0.006,0.792,0.1,1.086,0.309c0.33,0.236,0.496,0.552,0.501,0.96C98.964,43.328,98.818,43.646,98.519,43.882
				 M99.826,40.688c-0.676-0.494-1.515-0.734-2.493-0.722c-0.971,0.014-1.797,0.275-2.458,0.777
				c-0.736,0.566-1.092,1.332-1.059,2.269c0.031,0.937,0.425,1.683,1.166,2.222c0.676,0.48,1.494,0.717,2.434,0.705
				c0.93-0.014,1.727-0.262,2.369-0.742c0.726-0.546,1.107-1.283,1.135-2.188C100.955,42.037,100.588,41.258,99.826,40.688"/>
			<path fill="#5D5D5D" d="M98.263,37.388l3.91-0.055l-0.023-1.705l-7.876,0.109c-0.106,0.004-0.18-0.027-0.182-0.191l-0.021-1.488
				l8.054-0.113l-0.022-1.691l-10.014,0.139l0.056,3.95c0.01,0.74,0.385,1.125,1.084,1.115l3.075-0.043l0.01,0.652l-5.056,0.072
				l0.024,1.736l11.882-0.166l-0.024-1.736l-4.866,0.068L98.263,37.388z"/>
		</g>
		<polygon fill="#5D5D5D" points="111.571,39.211 109.614,39.239 109.656,42.259 104.339,42.333 104.362,44.054 116.766,43.882 
			116.741,42.16 111.613,42.232 		"/>
		<g>
			<path fill="#5D5D5D" d="M105.325,39.934c1.416-0.018,2.566-0.48,3.418-1.371c0.742-0.76,1.346-1.951,1.8-3.538
				c0.957,3.341,2.773,4.94,5.378,4.75l0.078-0.006l-0.023-1.703l-0.086,0.006c-0.985,0.055-1.846-0.41-2.57-1.38
				c-0.612-0.816-1.007-1.785-1.175-2.888l3.134-0.045l-0.024-1.689l-9.883,0.137l0.023,1.691l3.481-0.049
				c-0.117,1.203-0.508,2.228-1.161,3.042c-0.73,0.91-1.666,1.359-2.785,1.335l-0.084-0.004l0.025,1.703l0.076,0.004
				C105.075,39.934,105.2,39.938,105.325,39.934"/>
			<path fill="#5D5D5D" d="M120.175,43.335l-0.01-0.783l6.428-0.088l0.01,0.779c0.003,0.1-0.027,0.166-0.176,0.168l-6.098,0.087
				C120.236,43.499,120.177,43.472,120.175,43.335 M126.569,40.773l-6.428,0.09l-0.015-0.968l-1.899,0.025l0.059,4.211
				c0.004,0.328,0.103,0.594,0.286,0.792c0.188,0.195,0.439,0.295,0.751,0.291l8.172-0.115c0.311-0.002,0.565-0.111,0.763-0.322
				c0.195-0.205,0.291-0.473,0.287-0.789l-0.059-4.209l-1.931,0.023L126.569,40.773z"/>
			<path fill="#5D5D5D" d="M127.661,32.161c-0.805,0.012-1.206,0.447-1.195,1.3l0.08,5.672l1.931-0.025l-0.072-5.088
				c-0.001-0.15,0.064-0.182,0.162-0.182l1.111-0.016l-0.024-1.689L127.661,32.161z"/>
			<path fill="#5D5D5D" d="M122.756,37.626c-0.336,0.311-0.746,0.469-1.228,0.477c-0.479,0.006-0.891-0.141-1.226-0.439
				c-0.382-0.345-0.579-0.828-0.587-1.429c-0.008-0.554,0.176-1.017,0.547-1.361c0.336-0.308,0.754-0.468,1.242-0.474
				c0.488-0.008,0.905,0.145,1.241,0.455c0.381,0.336,0.572,0.799,0.573,1.376C123.316,36.812,123.128,37.281,122.756,37.626
				 M119.109,38.806c0.676,0.542,1.499,0.812,2.439,0.8c0.932-0.016,1.736-0.307,2.387-0.871c0.723-0.617,1.102-1.466,1.125-2.525
				c0.008-0.757-0.207-1.427-0.639-1.991l1.263-0.018l-0.023-1.677l-3.245,0.047l-0.015-1l-1.915,0.025l0.015,1.001l-3.261,0.045
				l0.023,1.675l1.258-0.018c-0.439,0.585-0.646,1.261-0.604,2.007C117.96,37.357,118.361,38.198,119.109,38.806"/>
		</g>
		
			<rect x="8.674" y="36.05" transform="matrix(-0.9999 0.0147 -0.0147 -0.9999 19.8875 73.6326)" fill="#5D5D5D" width="2" height="1.679"/>
	</g>
</g>
<g>
	<g>
		<rect x="15" y="156.352" fill="#5A91E2" width="30.001" height="2.326"/>
	</g>
	<g>
		<polygon fill="#5A91E2" points="50.769,139.437 48.462,139.437 48.462,108.205 11.539,108.205 11.539,139.437 9.232,139.437 
			9.232,105.882 50.769,105.882 		"/>
	</g>
	<path fill="#5A91E2" d="M54.146,128.693l-2.101,0.961l5.388,11.098h-14.74v9.299H17.309v-9.299H2.567l5.388-11.1l-2.099-0.961
		L0,140.752V164h60v-23.248L54.146,128.693z M57.693,161.674H2.308v-18.599H15v9.299h30.001v-9.299h12.692V161.674z"/>
	<g>
		<polygon fill="#5A91E2" points="48.462,103.488 46.153,103.488 46.153,102.326 13.848,102.326 13.848,103.488 11.539,103.488 
			11.539,100 48.462,100 		"/>
	</g>
	<g>
		<path fill="#5A91E2" d="M25.226,119.086c-1.439,0.298-2.866,0.36-5.8,0.36h-1.1v-5.733h5.759v1.58h-3.573v2.562
			c2.133-0.024,3.288-0.1,4.509-0.348L25.226,119.086z M21.844,122.754h6.56v1.581h-8.76v-3.968h2.201V122.754z M29.612,115.865
			v1.629h-1.589v3.769h-2.2v-8.434h2.2v3.035H29.612z"/>
		<path fill="#5A91E2" d="M36.758,112.992h2.038v11.019h-2.038v-3.284l-1.113,1.406c-1.033-0.473-1.712-1.257-2.16-2.227
			c-0.407,1.069-1.1,1.965-2.16,2.512l-1.223-1.505c1.875-0.995,2.322-2.835,2.322-4.564v-0.063h-1.766v-1.604h1.766v-1.48h2.08
			v1.48h1.751v1.604h-1.751v0.063c0,1.69,0.447,3.371,2.253,4.278v-1.865H35.59v-1.604h1.168V112.992z M41.417,112.83v11.667h-2.078
			V112.83H41.417z"/>
		<path fill="#5A91E2" d="M24.885,130.208h-6.926v-1.567h2.471v-0.97h2.201v0.97h2.24L24.885,130.208z M21.518,134.307
			c-1.765,0-3.043-0.882-3.043-2.126c0-1.244,1.278-2.126,3.043-2.126c1.779,0,3.056,0.883,3.056,2.126
			C24.574,133.424,23.297,134.307,21.518,134.307z M26.502,135.147h2.172v4.166h-8.706v-4.166h2.172v0.969h4.361V135.147z
			 M21.518,132.852c0.61,0,1.018-0.21,1.018-0.671c0-0.46-0.408-0.671-1.018-0.671c-0.598,0-1.005,0.211-1.005,0.671
			C20.512,132.641,20.919,132.852,21.518,132.852z M26.502,137.261h-4.361v0.536h4.361V137.261z M28.675,127.771v6.964h-2.2v-0.814
			h-1.385v-1.358h1.385v-1.058H25.13v-1.383h1.344v-2.351H28.675z"/>
		<path fill="#5A91E2" d="M33.946,134.177c-1.982,0-3.53-1.219-3.53-2.898s1.547-2.911,3.53-2.911c1.997,0,3.545,1.231,3.545,2.911
			S35.943,134.177,33.946,134.177z M31.896,135.06h8.625v4.377H38.32v-2.799h-6.424V135.06z M33.946,132.497
			c0.801,0,1.399-0.41,1.399-1.219c0-0.821-0.598-1.219-1.399-1.219c-0.787,0-1.385,0.397-1.385,1.219
			C32.561,132.087,33.159,132.497,33.946,132.497z M40.521,130.62v1.168h1.521v1.517h-1.521v1.319H38.32v-6.853h2.201v1.381h1.521
			v1.468H40.521z"/>
	</g>
</g>
<g>
	<ellipse fill="#5A91E2" cx="26.466" cy="87.186" rx="1.105" ry="1.392"/>
	<ellipse fill="#5A91E2" cx="26.466" cy="81.168" rx="1.105" ry="1.393"/>
	<ellipse fill="#5A91E2" cx="26.466" cy="75.153" rx="1.105" ry="1.393"/>
	<path fill="#5A91E2" d="M16.499,60C8.286,60,0,62.323,0,67.513v19.051c0,5.186,8.286,7.508,16.499,7.508
		C24.713,94.072,33,91.75,33,86.564V67.513C33,62.323,24.713,60,16.499,60z M3.208,86.564v-3.747
		c2.289,2.134,7.81,3.246,13.291,3.246c5.483,0,11.004-1.111,13.293-3.246v3.747c0,2.491-5.951,4.511-13.293,4.511
		C9.159,91.075,3.208,89.055,3.208,86.564z M29.792,67.513c0,2.491-5.951,4.512-13.293,4.512c-7.34,0-13.291-2.021-13.291-4.512
		c0-2.495,5.951-4.514,13.291-4.514C23.841,62.999,29.792,65.018,29.792,67.513z M29.792,74.562c0,2.476-5.951,4.479-13.293,4.479
		c-7.34,0-13.291-2.003-13.291-4.479c0-0.01,0.006-0.022,0.006-0.032H3.208v-3.446c2.903,2.003,8.224,2.945,13.291,2.945
		c5.069,0,10.39-0.941,13.293-2.945v3.446h-0.004C29.788,74.54,29.792,74.552,29.792,74.562z M29.792,80.579
		c0,2.476-5.951,4.48-13.293,4.48c-7.34,0-13.291-2.004-13.291-4.48c0-0.01,0.006-0.021,0.006-0.032H3.208V76.8
		c2.289,2.136,7.81,3.246,13.291,3.246c5.483,0,11.004-1.109,13.293-3.246v3.747h-0.004C29.788,80.557,29.792,80.568,29.792,80.579z
		"/>
</g>
</svg>
